Patient4_TMGait_0pt2_03_right_13_GRF.mot
version=1
nRows=38
nColumns=19
inDegrees=no
endheader
time	F1x	F1y	F1z	M1x	M1y	M1z	F2x	F2y	F2z	M2x	M2y	M2z	EC1x	EC1y	EC1z	EC2x	EC2y	EC2z
27.82	-14.0807	767.8956	42.6258	-289.7445	-51.1134	841.8407	7.6069	11.295	-0.075191	4.2257	-2.1839	11.9438	-0.0592	0.0182	-0.0073	-0.0462	0.0165	0.9585
27.8414	-12.6482	790.5812	44.1494	-298.2073	-52.4736	868.0395	5.136	9.0085	0.026335	3.322	-1.5325	9.5637	-0.0592	0.0182	-0.0073	-0.0462	0.0165	0.9585
27.8627	-11.7021	816.9472	45.9943	-308.023	-54.2489	897.6455	2.9168	6.6943	0.071458	2.4349	-0.90038	7.1702	-0.0592	0.0182	-0.0073	-0.0462	0.0165	0.9585
27.8841	-11.141	844.4496	48.0514	-318.2455	-56.2567	927.6725	1.1489	4.6575	0.063456	1.6715	-0.35264	5.0738	-0.0592	0.0182	-0.0073	-0.0462	0.0165	0.9585
27.9054	-10.6914	869.738	50.1956	-327.6248	-58.2589	954.3819	-0.1316	3.0643	0.030399	1.0848	0.070711	3.4392	-0.0592	0.0182	-0.0073	-0.0462	0.0165	0.9585
27.9268	-10.0329	889.3029	52.2661	-334.8529	-59.9794	973.9723	-0.97546	1.9374	-0.011009	0.67656	0.36831	2.2822	-0.0592	0.0182	-0.0073	-0.0462	0.0165	0.9585
27.9481	-8.902	900.2671	54.0373	-338.8651	-61.0976	983.4036	-1.4715	1.2046	-0.052305	0.41678	0.56019	1.5237	-0.0592	0.0182	-0.0073	-0.0462	0.0165	0.9585
27.9695	-7.1383	901.0235	55.2622	-339.0794	-61.3041	981.0533	-1.7167	0.74107	-0.087507	0.25691	0.67032	1.0317	-0.0592	0.0182	-0.0073	-0.0462	0.0165	0.9585
27.9909	-4.6994	891.5447	55.7509	-335.5095	-60.3948	967.0273	-1.7974	0.40064	-0.11203	0.1412	0.72037	0.64868	-0.0592	0.0182	-0.0073	-0.0462	0.0165	0.9585
28.0122	-1.6268	873.3357	55.427	-328.7415	-58.3194	943.0803	-1.779	0.035805	-0.12099	0.014427	0.7239	0.21389	-0.0592	0.0182	-0.0073	-0.0462	0.0165	0.9585
28.0336	2.0039	849.0554	54.3373	-319.7857	-55.1764	912.1932	-1.7034	-0.49714	-0.10979	-0.17513	0.68898	-0.43164	-0.0592	0.0182	-0.0073	-0.0462	0.0165	0.9585
28.0549	6.1112	821.8955	52.6374	-309.8398	-51.1824	877.8964	-1.5946	-1.3187	-0.074116	-0.47048	0.61709	-1.4222	-0.0592	0.0182	-0.0073	-0.0462	0.0165	0.9585
28.0763	10.6339	794.9603	50.5561	-300.0557	-46.6222	843.5931	-1.4604	-2.5026	-0.010529	-0.89717	0.50228	-2.8393	-0.0592	0.0182	-0.0073	-0.0462	0.0165	0.9585
28.0976	15.5234	770.7986	48.3479	-291.3683	-41.7972	812.0726	-1.2939	-4.0487	0.082104	-1.4534	0.33698	-4.679	-0.0592	0.0182	-0.0073	-0.0462	0.0165	0.9585
28.119	20.7021	751.1232	46.2477	-284.3937	-36.9938	785.2433	-1.0786	-5.837	0.20389	-2.0959	0.116	-6.7954	-0.0592	0.0182	-0.0073	-0.0462	0.0165	0.9585
28.1404	26.0467	736.7446	44.4483	-279.4084	-32.4637	764.076	-0.79315	-7.574	0.34977	-2.719	-0.15832	-8.8377	-0.0592	0.0182	-0.0073	-0.0462	0.0165	0.9585
28.1617	31.4017	727.624	43.0938	-276.3706	-28.4131	748.6413	-0.42225	-8.7235	0.50505	-3.1297	-0.46795	-10.1765	-0.0592	0.0182	-0.0073	-0.0462	0.0165	0.9585
28.1831	36.5923	722.9501	42.2876	-274.9493	-25.0088	738.1941	0.032528	-8.4473	0.63899	-3.0268	-0.76972	-9.8333	-0.0592	0.0182	-0.0073	-0.0462	0.0165	0.9585
28.2044	41.4142	721.2155	42.0899	-274.5512	-22.3858	731.272	0.54155	-5.5619	0.69963	-1.9873	-0.98417	-6.4342	-0.0592	0.0182	-0.0073	-0.0462	0.0165	0.9585
28.2258	45.6157	720.307	42.5027	-274.3548	-20.6469	725.8054	1.0329	1.4436	0.60656	0.52766	-0.98118	1.7734	-0.0592	0.0182	-0.0073	-0.0462	0.0165	0.9585
28.2471	48.9273	717.6886	43.4496	-273.3808	-19.8306	719.3017	1.3727	14.2885	0.24416	5.1322	-0.56931	16.7837	-0.0592	0.0182	-0.0073	-0.0462	0.0165	0.9585
28.2685	51.093	710.6766	44.748	-270.6021	-19.8724	709.131	1.3453	34.6332	-0.53506	12.4191	0.5055	40.5245	-0.0592	0.0182	-0.0073	-0.0462	0.0165	0.9585
28.2899	51.8813	696.8384	46.1085	-265.099	-20.5963	692.929	0.60952	63.6246	-1.8942	22.7983	2.5538	74.3356	-0.0592	0.0182	-0.0073	-0.0462	0.0165	0.9585
28.3112	51.0976	674.4005	47.1856	-256.2172	-21.7549	668.9904	-1.3159	101.3081	-3.9726	36.2839	5.8952	118.2684	-0.0592	0.0182	-0.0073	-0.0462	0.0165	0.9585
28.3326	48.6575	642.6562	47.6422	-243.7194	-23.0654	636.6365	-4.6113	146.1562	-6.8684	52.3183	10.6822	170.5121	-0.0592	0.0182	-0.0073	-0.0462	0.0165	0.9585
28.3539	44.7028	602.3185	47.2277	-227.9115	-24.2416	596.5255	-8.9564	195.3817	-10.6269	69.8832	16.8131	227.7341	-0.0592	0.0182	-0.0073	-0.0462	0.0165	0.9585
28.3753	39.6441	555.5092	45.8479	-209.6299	-25.042	550.6253	-13.7973	246.5554	-15.0636	88.0937	23.8487	286.9985	-0.0592	0.0182	-0.0073	-0.0462	0.0165	0.9585
28.3966	34.0439	505.0509	43.58	-189.9717	-25.3207	501.5432	-18.5866	298.4369	-19.8676	106.4987	31.2332	346.7739	-0.0592	0.0182	-0.0073	-0.0462	0.0165	0.9585
28.418	28.4425	453.5823	40.5937	-169.9652	-25.0153	451.6909	-22.86	350.2071	-24.6756	124.8049	38.3982	406.0555	-0.0592	0.0182	-0.0073	-0.0462	0.0165	0.9585
28.4394	23.2684	403.1601	37.0819	-150.4199	-24.1131	402.9193	-26.2438	400.7755	-29.1592	142.6225	44.8531	463.5573	-0.0592	0.0182	-0.0073	-0.0462	0.0165	0.9585
28.4607	18.8166	355.32	33.2568	-131.9434	-22.6638	356.6005	-28.4842	448.6045	-33.0907	159.3996	50.2581	517.514	-0.0592	0.0182	-0.0073	-0.0462	0.0165	0.9585
28.4821	15.2488	311.287	29.339	-115.0163	-20.776	313.8489	-29.4967	491.9241	-36.3431	174.504	54.4431	565.9336	-0.0592	0.0182	-0.0073	-0.0462	0.0165	0.9585
28.5034	12.6173	272.0362	25.5283	-100.0106	-18.5873	275.5759	-29.3753	529.2479	-38.8248	187.4163	57.3425	607.1863	-0.0592	0.0182	-0.0073	-0.0462	0.0165	0.9585
28.5248	10.8836	238.1809	21.9948	-87.145	-16.2519	242.3806	-28.317	559.7892	-40.4308	197.8809	58.9176	640.4603	-0.0592	0.0182	-0.0073	-0.0462	0.0165	0.9585
28.5461	9.9404	209.888	18.8687	-76.456	-13.9205	214.4675	-26.5441	583.4933	-41.0731	205.9127	59.1587	665.7906	-0.0592	0.0182	-0.0073	-0.0462	0.0165	0.9585
28.5675	9.6341	186.8708	16.2075	-67.8056	-11.7031	191.6243	-24.2746	600.8214	-40.7395	211.7095	58.1402	683.8087	-0.0592	0.0182	-0.0073	-0.0462	0.0165	0.9585
28.5889	9.8077	168.4269	13.9971	-60.9036	-9.6545	173.2244	-21.7062	612.5861	-39.5361	215.582	56.0611	695.5389	-0.0592	0.0182	-0.0073	-0.0462	0.0165	0.9585
28.6102	10.3175	153.4915	12.1711	-55.3331	-7.782	158.2525	-19.0087	619.8366	-37.6895	217.9065	53.2414	702.2557	-0.0592	0.0182	-0.0073	-0.0462	0.0165	0.9585
